<svg width="20" height="25" viewBox="0 0 20 25" fill="none" xmlns="http://www.w3.org/2000/svg">
<path d="M1.07465 13.7745C1.07465 11.7674 1.07465 9.75357 1.07465 7.74653C1.07465 7.11165 1.41933 6.67474 1.98028 6.57234C2.60206 6.46311 3.19005 6.9205 3.2306 7.56221C3.23736 7.65778 3.23736 7.74653 3.23736 7.8421C3.23736 11.7674 3.23736 15.6996 3.23736 19.6249C3.23736 20.9288 4.11596 21.8163 5.41359 21.8163C8.27919 21.8163 11.1448 21.8163 14.0171 21.8163C15.3148 21.8163 16.1934 20.9288 16.1934 19.6249C16.1934 15.6655 16.1934 11.706 16.1934 7.7397C16.1934 7.1253 16.5178 6.68839 17.0517 6.57917C17.66 6.44946 18.2277 6.84541 18.3358 7.46663C18.3561 7.58269 18.3561 7.70557 18.3629 7.82162C18.3629 11.7674 18.3629 15.7064 18.3629 19.6522C18.3629 21.8163 16.9301 23.5503 14.8282 23.9394C14.5781 23.9872 14.328 24.0008 14.0712 24.0008C11.1718 24.0077 8.27243 24.0077 5.36629 24.0008C2.95351 24.0008 1.0814 22.1098 1.0814 19.6795C1.07465 17.7066 1.07465 15.7406 1.07465 13.7745Z" fill="#FA0F0F"/>
<path d="M14.0307 3.27509C14.3145 3.27509 14.5578 3.27509 14.8012 3.27509C15.9636 3.27509 17.1261 3.26827 18.2885 3.27509C19.0793 3.28192 19.5997 3.95776 19.3834 4.68139C19.255 5.11147 18.8833 5.41867 18.444 5.4528C18.3832 5.45963 18.3291 5.45963 18.2683 5.45963C12.5709 5.45963 6.87345 5.45963 1.17605 5.45963C0.479922 5.45963 -0.00668896 4.99541 6.9528e-05 4.35371C0.00682801 3.73248 0.486681 3.27509 1.16253 3.27509C2.46016 3.26827 3.75779 3.27509 5.05542 3.27509C5.1568 3.27509 5.25817 3.27509 5.4001 3.27509C5.4001 3.16587 5.4001 3.07712 5.4001 2.98837C5.4001 2.37397 5.39334 1.75957 5.4001 1.152C5.40686 0.462507 5.84616 0.00512 6.52877 0.00512C8.65093 -0.00170667 10.7731 -0.00170667 12.902 0.00512C13.5846 0.00512 14.0239 0.462507 14.0307 1.14517C14.0307 1.84149 14.0307 2.53781 14.0307 3.27509ZM7.56282 3.24779C9.00913 3.24779 10.4352 3.24779 11.8545 3.24779C11.8545 2.87915 11.8545 2.53781 11.8545 2.19648C10.4149 2.19648 8.99562 2.19648 7.56282 2.19648C7.56282 2.55147 7.56282 2.8928 7.56282 3.24779Z" fill="#FA0F0F"/>
<path d="M6.47472 13.638C6.47472 12.3614 6.46796 11.0848 6.47472 9.80819C6.47472 9.27571 6.84643 8.84563 7.36008 8.75006C7.82641 8.66131 8.3333 8.9139 8.52253 9.36446C8.59012 9.5283 8.63067 9.72627 8.63067 9.91059C8.63743 12.3955 8.63743 14.8804 8.63067 17.3653C8.63067 18.0616 8.17109 18.5532 7.5358 18.5463C6.91402 18.5395 6.46796 18.0548 6.46796 17.3721C6.47472 16.1229 6.47472 14.8804 6.47472 13.638Z" fill="#FA0F0F"/>
<path d="M12.9561 13.6448C12.9561 14.9145 12.9561 16.1843 12.9561 17.4472C12.9561 17.9592 12.6384 18.3688 12.1586 18.4985C11.699 18.6282 11.1921 18.4371 10.9623 18.0138C10.861 17.8295 10.8001 17.5974 10.8001 17.3858C10.7866 14.8804 10.7934 12.3818 10.7934 9.87644C10.7934 9.2006 11.2665 8.72274 11.895 8.72956C12.5033 8.73639 12.9561 9.22108 12.9561 9.8901C12.9561 11.1394 12.9561 12.3887 12.9561 13.6448Z" fill="#FA0F0F"/>
</svg>
