<svg width="21" height="21" viewBox="0 0 21 21" fill="none" xmlns="http://www.w3.org/2000/svg">
<path d="M21 5.09564C20.9803 6.66283 20.4739 7.8956 19.4612 8.9251C18.9483 9.44312 18.4288 9.95459 17.9158 10.4726C14.95 13.4365 11.9842 16.3873 9.03156 19.3643C8.61069 19.7905 8.15695 20.0266 7.5651 20.1053C5.48049 20.3807 3.39588 20.6954 1.31126 20.984C0.456375 21.102 -0.10259 20.5577 0.0157787 19.7118C0.33143 17.4627 0.653657 15.2201 0.995612 12.9775C1.02849 12.7414 1.16001 12.4857 1.33099 12.3152C4.92152 8.70871 8.51205 5.09564 12.1355 1.51536C13.5888 0.0858657 15.3709 -0.333801 17.3108 0.262913C19.2968 0.872741 20.4805 2.276 20.9145 4.30221C20.9803 4.60384 20.9868 4.91859 21 5.09564ZM2.28452 18.7086C2.34371 18.7086 2.37001 18.7086 2.38974 18.7086C3.98115 18.4856 5.57255 18.2627 7.15738 18.0266C7.31521 18.0004 7.48619 17.9151 7.59798 17.8037C10.0969 15.3185 12.5892 12.8201 15.0881 10.3284C15.1473 10.2693 15.2065 10.2038 15.2394 10.1644C13.7663 8.68903 12.3064 7.22676 10.84 5.76448C10.8334 5.77104 10.8071 5.79071 10.7808 5.81694C8.22928 8.36773 5.67119 10.9185 3.12626 13.4693C3.0605 13.5349 3.00789 13.6463 2.99474 13.7447C2.88294 14.4463 2.7843 15.1545 2.68566 15.8627C2.55414 16.807 2.42262 17.7447 2.28452 18.7086ZM16.7782 8.62346C17.2188 8.18412 17.6791 7.76446 18.1 7.30545C18.6523 6.70873 18.922 5.98087 18.8957 5.17433C18.8431 3.92188 18.2775 2.97107 17.1201 2.44649C15.943 1.91535 14.7988 2.03994 13.7992 2.85304C13.2929 3.26615 12.8786 3.80385 12.438 4.27598C13.8518 5.69891 15.3117 7.15463 16.7782 8.62346Z" fill="#F2C94C"/>
</svg>
