<svg width="44" height="31" viewBox="0 0 44 31" fill="none" xmlns="http://www.w3.org/2000/svg">
<path d="M0.022948 3.35041C0.0917922 3.12093 0.137688 2.87998 0.218006 2.6505C0.734337 1.07856 2.20301 0.011474 3.90117 0.011474C6.58609 0 9.28248 0 11.9674 0C21.2843 0 30.6012 0 39.9181 0C41.8802 0 43.3833 1.10151 43.8537 2.87998C43.9455 3.24715 43.9914 3.63726 43.9914 4.02738C44.0029 11.6576 44.0029 19.2878 43.9914 26.9181C43.9914 29.2817 42.3277 30.934 39.9525 30.934C28.0196 30.934 16.0751 30.934 4.14212 30.934C1.99648 30.934 0.585175 29.8325 0.0688441 27.7442C0.0573701 27.6868 0.022948 27.6409 0 27.5835C0.022948 19.5058 0.022948 11.4281 0.022948 3.35041ZM4.53224 2.6046C4.65845 2.74229 4.73877 2.83408 4.81909 2.9144C10.166 8.27277 15.5129 13.6426 20.8598 19.001C21.5941 19.7353 22.4432 19.7353 23.189 18.9895C28.5359 13.6311 33.8828 8.2613 39.2297 2.90293C39.31 2.82261 39.3903 2.71934 39.4821 2.6046C27.813 2.6046 16.2013 2.6046 4.53224 2.6046ZM4.49782 28.3179C16.2128 28.3179 27.8245 28.3179 39.528 28.3179C35.8104 24.6347 32.1502 20.9975 28.4785 17.3602C28.3982 17.4405 28.2835 17.5438 28.1687 17.6585C27.1016 18.7371 26.0346 19.8156 24.956 20.8827C23.2693 22.5579 20.768 22.5579 19.0813 20.8827C18.4273 20.2402 17.7847 19.5862 17.1422 18.9321C16.6029 18.3929 16.0751 17.8651 15.5588 17.3602C11.8756 20.9975 8.2154 24.6232 4.49782 28.3179ZM2.62755 4.53224C2.62755 11.7953 2.62755 19.1387 2.62755 26.3902C6.27629 22.7759 9.97092 19.1157 13.6541 15.467C9.95945 11.8068 6.27629 8.15803 2.62755 4.53224ZM41.3983 26.4132C41.3983 19.1272 41.3983 11.7838 41.3983 4.57813C37.7725 8.1695 34.0778 11.8182 30.3832 15.4899C34.0549 19.1501 37.7381 22.7874 41.3983 26.4132Z" fill="#E0E0E0"/>
<path d="M4.53223 2.60461C16.2128 2.60461 27.8245 2.60461 39.4821 2.60461C39.3788 2.71935 39.31 2.82262 39.2297 2.90294C33.8828 8.26131 28.5359 13.6311 23.189 18.9895C22.4432 19.7353 21.5941 19.7468 20.8598 19.001C15.5129 13.6426 10.166 8.28425 4.81908 2.91441C4.72728 2.83409 4.64697 2.73083 4.53223 2.60461Z" fill="white"/>
<path d="M4.4978 28.3179C8.21539 24.6348 11.8756 20.9975 15.5588 17.3488C16.0636 17.8536 16.6029 18.3929 17.1422 18.9207C17.7847 19.5747 18.4273 20.2173 19.0813 20.8713C20.768 22.5465 23.2693 22.5465 24.956 20.8713C26.0345 19.8042 27.1016 18.7256 28.1687 17.6471C28.272 17.5323 28.3867 17.4291 28.4785 17.3488C32.1617 20.9975 35.8104 24.6233 39.528 28.3064C27.8245 28.3179 16.2128 28.3179 4.4978 28.3179Z" fill="white"/>
<path d="M2.62756 4.53223C6.28778 8.15802 9.95946 11.8068 13.6541 15.467C9.95946 19.1272 6.2763 22.7759 2.62756 26.3902C2.62756 19.1387 2.62756 11.7953 2.62756 4.53223Z" fill="white"/>
<path d="M41.3982 26.4132C37.738 22.7874 34.0549 19.1387 30.3832 15.4899C34.0893 11.8182 37.7724 8.16949 41.3982 4.57812C41.3982 11.7838 41.3982 19.1272 41.3982 26.4132Z" fill="white"/>
</svg>
