<svg width="27" height="23" viewBox="0 0 27 23" fill="none" xmlns="http://www.w3.org/2000/svg">
<g clip-path="url(#clip0_16_934)">
<path d="M27 1.00207C26.9156 1.05045 26.9226 1.14721 26.8945 1.22323C24.784 8.00297 22.6735 14.7758 20.5701 21.5556C20.359 22.2397 19.7892 22.4263 19.2053 22.0048C16.9119 20.3392 14.6186 18.6736 12.3322 17.0012C12.1352 16.856 12.0649 16.8699 11.9594 17.091C11.0519 18.881 10.1232 20.664 9.2087 22.454C9.03987 22.7788 8.81475 23.0069 8.42079 23C8.01277 23 7.68213 22.6959 7.63992 22.3019C7.63288 22.2052 7.63288 22.1154 7.63288 22.0186C7.63288 19.3302 7.63288 16.6418 7.63992 13.9534C7.63992 13.7668 7.58364 13.6908 7.40777 13.6217C5.14956 12.7716 2.89839 11.9146 0.640179 11.0715C0.344712 10.9609 0.147734 10.7743 -0.0140686 10.5186C-0.0140686 10.3666 -0.0140686 10.2076 -0.0140686 10.0556C0.154769 9.75838 0.408026 9.59252 0.738667 9.46812C9.06801 6.35814 17.3903 3.24126 25.7126 0.12437C26.3598 -0.117517 26.6834 -2.86372e-05 26.9859 0.594322C27 0.725632 27 0.863853 27 1.00207ZM20.4435 3.77341C20.359 3.80105 20.2746 3.82179 20.1902 3.84943C15.2025 5.71541 10.2147 7.58831 5.22694 9.4543C4.50235 9.72383 3.77775 9.99336 3.01798 10.2836C3.13054 10.332 3.19385 10.3666 3.27124 10.3942C4.88223 11.0024 6.49323 11.6105 8.09719 12.2256C8.2801 12.2947 8.39969 12.2671 8.54742 12.1634C11.8609 9.84132 15.1813 7.52611 18.4948 5.21091C19.1561 4.74787 19.8174 4.27792 20.4716 3.80796C20.4997 3.80105 20.5138 3.78723 20.4997 3.7665C20.4927 3.75267 20.4646 3.7665 20.4435 3.77341ZM19.346 20.1733C21.0485 14.6929 22.7439 9.26079 24.4323 3.82179C24.4112 3.81487 24.3971 3.80105 24.376 3.79414C20.5912 7.71271 16.7994 11.6313 13.0076 15.5568C15.118 17.0979 17.2215 18.6253 19.346 20.1733ZM19.747 6.24065C19.6556 6.30285 19.6063 6.3305 19.5641 6.36505C16.1733 8.72863 12.7895 11.0991 9.39865 13.4627C9.26498 13.5526 9.22981 13.6493 9.22981 13.8013C9.23684 15.4185 9.22981 17.0426 9.22981 18.6598C9.22981 18.7289 9.22981 18.798 9.22981 18.8672C9.31423 18.798 9.35644 18.722 9.39161 18.646C9.94737 17.5748 10.4961 16.4967 11.0448 15.4254C11.1222 15.2803 11.2137 15.149 11.3332 15.0246C14.0558 12.2118 16.7712 9.39901 19.4938 6.5793C19.5782 6.49636 19.6907 6.42725 19.747 6.24065Z" fill="#32BAA5"/>
<path d="M19.346 20.1733C17.2215 18.6253 15.118 17.0979 13.0005 15.5568C16.7994 11.6313 20.5842 7.7127 24.3689 3.79413C24.39 3.80104 24.4041 3.81486 24.4252 3.82177C22.7439 9.25386 21.0485 14.6929 19.346 20.1733Z" fill="#FDFDFD"/>
<path d="M20.4716 3.80103C19.8103 4.27099 19.1561 4.74094 18.4948 5.20398C15.1814 7.51918 11.8609 9.83439 8.54743 12.1565C8.39969 12.2602 8.2801 12.2878 8.09719 12.2187C6.49323 11.6036 4.88223 10.9954 3.27124 10.3873C3.20089 10.3596 3.13054 10.3251 3.01798 10.2767C3.77775 9.99334 4.50235 9.72381 5.22695 9.44737C10.2147 7.58138 15.2025 5.70849 20.1902 3.8425C20.2746 3.81486 20.359 3.78721 20.4435 3.76648C20.4505 3.7803 20.4646 3.78721 20.4716 3.80103Z" fill="#FDFDFD"/>
<path d="M19.747 6.24066C19.6907 6.42035 19.5782 6.49637 19.4938 6.58621C16.7783 9.39901 14.0558 12.2187 11.3332 15.0315C11.2137 15.149 11.1222 15.2803 11.0448 15.4324C10.4961 16.5036 9.94033 17.5817 9.39161 18.6529C9.35643 18.7289 9.31422 18.7981 9.2298 18.8741C9.2298 18.805 9.2298 18.7359 9.2298 18.6667C9.2298 17.0496 9.2298 15.4255 9.2298 13.8083C9.2298 13.6562 9.26498 13.5595 9.39864 13.4696C12.7895 11.106 16.1803 8.74246 19.5641 6.37197C19.6063 6.3305 19.6556 6.30286 19.747 6.24066Z" fill="#FDFDFD"/>
<path d="M20.4435 3.7734C20.4646 3.76648 20.4927 3.75266 20.4997 3.75957C20.5209 3.78722 20.4997 3.80104 20.4716 3.80104C20.4646 3.78722 20.4505 3.78031 20.4435 3.7734Z" fill="#FDFDFD"/>
</g>
<defs>
<clipPath id="clip0_16_934">
<rect width="27" height="23" fill="white"/>
</clipPath>
</defs>
</svg>
