<svg width="15" height="14" viewBox="0 0 15 14" fill="none" xmlns="http://www.w3.org/2000/svg">
<path d="M0.0029403 5.39294C0.0911494 5.12373 0.235224 4.88603 0.526315 4.80871C0.752718 4.74856 0.996763 4.73424 1.23493 4.71133C2.46398 4.59964 3.69302 4.49368 4.92207 4.38771C5.02204 4.37912 5.07203 4.34189 5.11319 4.25025C5.65127 3.01591 6.19522 1.78158 6.73624 0.544383C6.84503 0.292361 7.00969 0.106209 7.28313 0.0317476C7.68302 -0.0799439 8.07408 0.109072 8.24755 0.504288C8.61509 1.33768 8.97969 2.17107 9.34429 3.00446C9.52953 3.42259 9.71477 3.84071 9.89413 4.2617C9.92941 4.34189 9.97351 4.37912 10.0617 4.38771C10.9644 4.46504 11.87 4.54236 12.7727 4.62255C13.2696 4.66551 13.7636 4.71133 14.2605 4.75716C14.6045 4.78866 14.8456 4.96622 14.9544 5.28411C15.0661 5.61346 14.9691 5.90271 14.7015 6.13182C13.6636 7.01962 12.6257 7.90743 11.5848 8.79237C11.4907 8.87256 11.4554 8.93843 11.4848 9.0673C11.7965 10.3761 12.0994 11.6849 12.4051 12.9965C12.4845 13.3374 12.4022 13.6352 12.1082 13.8443C11.8141 14.0533 11.4995 14.0447 11.1879 13.8614C10.0029 13.1712 8.81797 12.4839 7.63597 11.788C7.536 11.7278 7.46249 11.7278 7.36252 11.788C6.18346 12.4782 5.0044 13.1655 3.8224 13.8529C3.42251 14.0848 2.99029 14.0247 2.73154 13.7011C2.56689 13.4977 2.52572 13.2658 2.58453 13.0137C2.89032 11.7049 3.19317 10.3933 3.50484 9.08448C3.53719 8.94988 3.51072 8.87542 3.40487 8.78378C2.36989 7.90743 1.34078 7.02535 0.308732 6.14614C0.155836 6.01726 0.067627 5.85402 0 5.67646C0.0029403 5.58195 0.0029403 5.48745 0.0029403 5.39294Z" fill="#F2C94C"/>
</svg>
